<svg xmlns="http://www.w3.org/2000/svg" xmlns:xlink="http://www.w3.org/1999/xlink" width="700" height="500">
<defs>
<style type="text/css"><![CDATA[
  .borderLine {
	   stroke: none;
	   fill-opacity:  0.4 ;
  }
  .outLine {
	   stroke-width:  1 ;
	   fill: none;
  }
  .circle {
	   stroke: #888888;
	   stroke-width: 0.5;
	   fill: none;
    pointer-events: all;
  }
  .nLabel {
	   font-family: Arial;
    pointer-events: none;
	   font-size: 10px;
	   text-anchor: middle;
	   alignment-baseline: central;
  }
  .belong { 
 display: none;
	   font-family: Arial;
    pointer-events: none;
	   font-size: 5px;
	   text-anchor: middle;
	   alignment-baseline: central;
  }
  .legend {
    font-family: Arial;
    font-size: 15px;
  }
  #legendBox {
    display:  inline ;
  }
  .p0{
    stroke: none;
    fill: #e6194b;
  }
  .q0{
    fill: none;
    stroke: #e6194b;
  }
  .p1{
    stroke: none;
    fill: #3cb44b;
  }
  .q1{
    fill: none;
    stroke: #3cb44b;
  }
  .p2{
    stroke: none;
    fill: #ffe119;
  }
  .q2{
    fill: none;
    stroke: #ffe119;
  }
]]>
</style>
<symbol id="bl0">
<path d="M 201.00 250.94 L 196.80 251.87 L 192.54 252.38 L 188.25 252.46 L 183.97 252.12 L 179.75 251.36 L 175.61 250.22 L 171.59 248.70 L 167.70 246.84 L 163.94 244.72 L 160.31 242.37 L 156.78 239.87 L 153.31 237.29 L 149.87 234.66 L 146.44 232.02 L 143.01 229.37 L 139.58 226.72 L 136.16 224.07 L 132.73 221.43 L 129.31 218.78 L 125.88 216.12 L 122.45 213.47 L 119.03 210.83 L 115.60 208.18 L 112.18 205.53 L 108.75 202.88 L 105.33 200.23 L 101.91 197.58 L 98.48 194.94 L 95.06 192.29 L 91.64 189.63 L 88.22 186.98 L 84.80 184.33 L 81.38 181.68 L 77.98 179.00 L 74.61 176.29 L 71.30 173.51 L 68.06 170.65 L 64.93 167.67 L 61.94 164.56 L 59.11 161.30 L 56.46 157.89 L 53.99 154.35 L 51.74 150.67 L 49.68 146.88 L 47.85 142.97 L 46.23 138.97 L 44.84 134.89 L 43.67 130.73 L 42.74 126.52 L 42.05 122.26 L 41.59 117.97 L 41.37 113.66 L 41.39 109.34 L 41.65 105.03 L 42.16 100.75 L 42.89 96.49 L 43.87 92.29 L 45.08 88.15 L 46.51 84.07 L 48.17 80.09 L 50.05 76.20 L 52.14 72.42 L 54.43 68.77 L 56.93 65.25 L 59.62 61.87 L 62.49 58.64 L 65.54 55.59 L 68.75 52.71 L 72.12 50.00 L 75.63 47.50 L 79.28 45.19 L 83.05 43.08 L 86.93 41.19 L 90.91 39.52 L 94.97 38.07 L 99.11 36.86 L 103.31 35.87 L 107.56 35.12 L 111.85 34.60 L 116.15 34.33 L 120.47 34.29 L 124.78 34.50 L 129.07 34.95 L 133.33 35.63 L 137.54 36.55 L 141.70 37.71 L 145.79 39.09 L 149.79 40.70 L 153.70 42.52 L 157.52 44.54 L 161.24 46.74 L 164.89 49.08 L 168.48 51.51 L 172.04 53.98 L 175.59 56.49 L 179.13 58.99 L 182.66 61.51 L 186.20 64.02 L 189.74 66.54 L 193.27 69.06 L 196.81 71.57 L 200.34 74.09 L 203.88 76.62 L 207.41 79.15 L 210.92 81.69 L 214.39 84.28 L 217.77 86.96 L 221.01 89.80 L 224.08 92.84 L 226.98 96.07 L 229.76 99.49 L 232.42 103.12 L 234.97 106.94 L 237.45 110.93 L 239.88 115.03 L 242.27 119.18 L 244.62 123.37 L 246.88 127.60 L 248.95 131.89 L 250.66 136.29 L 251.84 140.81 L 252.38 145.49 L 252.32 150.33 L 251.80 155.32 L 250.89 160.47 L 249.64 165.78 L 248.15 171.23 L 246.50 176.75 L 244.79 182.32 L 243.04 187.90 L 241.29 193.48 L 239.53 199.06 L 237.76 204.64 L 235.96 210.20 L 234.07 215.71 L 231.99 221.11 L 229.62 226.28 L 226.88 231.11 L 223.77 235.48 L 220.37 239.32 L 216.76 242.64 L 213.00 245.44 L 209.11 247.74 L 205.11 249.57 Z" />
</symbol>
<symbol id="bl1">
<path d="M 321.18 200.20 L 317.72 201.51 L 314.06 202.57 L 310.20 203.36 L 306.13 203.90 L 301.95 204.15 L 297.76 204.10 L 293.66 203.74 L 289.68 203.06 L 285.81 202.11 L 282.03 200.92 L 278.31 199.56 L 274.62 198.09 L 270.95 196.57 L 267.29 195.04 L 263.63 193.50 L 259.97 191.96 L 256.31 190.41 L 252.65 188.87 L 248.99 187.33 L 245.33 185.80 L 241.66 184.25 L 238.00 182.71 L 234.34 181.16 L 230.69 179.60 L 227.04 178.00 L 223.40 176.33 L 219.80 174.55 L 216.25 172.61 L 212.82 170.50 L 209.60 168.21 L 206.71 165.70 L 204.24 162.94 L 202.24 159.94 L 200.68 156.74 L 199.55 153.37 L 198.76 149.89 L 198.23 146.35 L 197.89 142.78 L 197.66 139.21 L 197.51 135.63 L 197.38 132.05 L 197.26 128.46 L 197.15 124.86 L 197.03 121.21 L 196.92 117.48 L 196.81 113.61 L 196.77 109.62 L 196.88 105.59 L 197.26 101.64 L 197.97 97.85 L 198.95 94.23 L 200.11 90.71 L 201.36 87.24 L 202.63 83.80 L 203.92 80.36 L 205.21 76.93 L 206.51 73.49 L 207.80 70.06 L 209.10 66.62 L 210.39 63.19 L 211.68 59.75 L 212.98 56.32 L 214.28 52.89 L 215.59 49.47 L 216.94 46.07 L 218.37 42.71 L 219.94 39.41 L 221.68 36.22 L 223.62 33.14 L 225.75 30.19 L 228.08 27.41 L 230.60 24.78 L 233.29 22.34 L 236.15 20.10 L 239.16 18.05 L 242.30 16.22 L 245.56 14.61 L 248.92 13.24 L 252.37 12.10 L 255.90 11.20 L 259.47 10.55 L 263.09 10.15 L 266.72 10.00 L 270.35 10.10 L 273.97 10.46 L 277.56 11.06 L 281.09 11.92 L 284.56 13.01 L 287.94 14.34 L 291.22 15.91 L 294.39 17.70 L 297.42 19.70 L 300.31 21.91 L 303.03 24.32 L 305.59 26.90 L 307.95 29.66 L 310.13 32.58 L 312.10 35.63 L 313.87 38.81 L 315.45 42.09 L 316.86 45.46 L 318.14 48.88 L 319.34 52.33 L 320.51 55.80 L 321.67 59.28 L 322.82 62.75 L 323.96 66.23 L 325.11 69.70 L 326.26 73.19 L 327.41 76.66 L 328.56 80.14 L 329.71 83.63 L 330.86 87.10 L 332.00 90.58 L 333.15 94.07 L 334.29 97.54 L 335.44 101.02 L 336.59 104.50 L 337.74 107.98 L 338.88 111.46 L 340.03 114.94 L 341.17 118.43 L 342.32 121.91 L 343.46 125.39 L 344.60 128.87 L 345.72 132.36 L 346.80 135.86 L 347.82 139.38 L 348.72 142.92 L 349.45 146.49 L 349.96 150.10 L 350.21 153.72 L 350.20 157.36 L 349.92 160.98 L 349.38 164.58 L 348.58 168.12 L 347.51 171.59 L 346.19 174.98 L 344.63 178.26 L 342.83 181.41 L 340.79 184.42 L 338.54 187.28 L 336.09 189.95 L 333.44 192.45 L 330.62 194.73 L 327.62 196.79 L 324.48 198.62 Z" />
</symbol>
<symbol id="bl2">
<path d="M 458.27 357.66 L 457.57 364.60 L 456.54 371.49 L 455.18 378.33 L 453.48 385.09 L 451.46 391.76 L 449.11 398.33 L 446.44 404.77 L 443.47 411.08 L 440.19 417.23 L 436.61 423.22 L 432.75 429.03 L 428.61 434.64 L 424.19 440.04 L 419.52 445.22 L 414.61 450.17 L 409.45 454.88 L 404.08 459.32 L 398.49 463.50 L 392.71 467.41 L 386.74 471.02 L 380.61 474.35 L 374.32 477.37 L 367.88 480.08 L 361.33 482.47 L 354.67 484.55 L 347.91 486.29 L 341.08 487.71 L 334.19 488.79 L 327.25 489.53 L 320.29 489.94 L 313.31 490.00 L 306.34 489.73 L 299.39 489.11 L 292.48 488.16 L 285.62 486.87 L 278.84 485.26 L 272.14 483.31 L 265.55 481.03 L 259.08 478.44 L 252.74 475.54 L 246.55 472.33 L 240.52 468.83 L 234.68 465.03 L 229.03 460.95 L 223.58 456.60 L 218.35 451.99 L 213.35 447.14 L 208.60 442.04 L 204.10 436.72 L 199.87 431.19 L 195.91 425.45 L 192.24 419.53 L 188.86 413.43 L 185.78 407.18 L 183.01 400.78 L 180.55 394.26 L 178.39 387.63 L 176.51 380.91 L 174.86 374.12 L 173.37 367.29 L 171.99 360.43 L 170.68 353.56 L 169.40 346.68 L 168.14 339.80 L 166.88 332.92 L 165.63 326.04 L 164.37 319.15 L 163.12 312.26 L 161.86 305.37 L 160.61 298.48 L 159.35 291.58 L 158.10 284.69 L 156.84 277.80 L 155.59 270.91 L 154.34 264.01 L 153.08 257.12 L 151.84 250.22 L 150.61 243.31 L 149.43 236.40 L 148.37 229.45 L 147.51 222.47 L 147.03 215.47 L 147.11 208.50 L 148.00 201.64 L 149.90 194.97 L 152.91 188.55 L 157.04 182.43 L 162.13 176.61 L 167.81 170.95 L 173.61 165.30 L 179.20 159.54 L 184.53 153.66 L 189.71 147.74 L 194.96 141.93 L 200.54 136.42 L 206.67 131.44 L 213.42 127.13 L 220.74 123.74 L 228.27 121.11 L 235.80 119.23 L 243.28 117.90 L 250.70 116.87 L 258.11 115.90 L 265.56 114.76 L 273.07 113.34 L 280.65 111.68 L 288.22 110.06 L 295.67 108.93 L 302.91 108.63 L 309.87 109.31 L 316.51 110.97 L 322.77 113.58 L 328.59 117.06 L 333.91 121.30 L 338.71 126.17 L 343.11 131.52 L 347.26 137.13 L 351.27 142.88 L 355.22 148.68 L 359.15 154.49 L 363.07 160.31 L 366.99 166.14 L 370.91 171.96 L 374.83 177.78 L 378.74 183.61 L 382.66 189.43 L 386.57 195.25 L 390.49 201.07 L 394.40 206.89 L 398.31 212.70 L 402.23 218.52 L 406.13 224.33 L 410.04 230.15 L 413.95 235.97 L 417.86 241.79 L 421.76 247.61 L 425.64 253.43 L 429.50 259.27 L 433.29 265.15 L 436.97 271.09 L 440.45 277.14 L 443.68 283.32 L 446.63 289.64 L 449.27 296.09 L 451.60 302.66 L 453.60 309.33 L 455.28 316.09 L 456.62 322.93 L 457.63 329.83 L 458.30 336.77 L 458.63 343.73 L 458.62 350.70 Z" />
</symbol>
</defs>
<!-- isDone: 0 -->
<rect width="700" height="500" style="fill:#fff;stroke-width:0" />
<use class="p0 borderLine" xlink:href="#bl0"/>
<use class="p1 borderLine" xlink:href="#bl1"/>
<use class="p2 borderLine" xlink:href="#bl2"/>
<use class="q0 outLine" xlink:href="#bl0"/>
<use class="q1 outLine" xlink:href="#bl1"/>
<use class="q2 outLine" xlink:href="#bl2"/>
<circle onclick="fromCircle(4)" class="circle" cx="118.5364" cy="111.6844" r="73.3597" />
<text class="nLabel" x="118.54" y="106.68">163</text>
<text class="belong" x="118.54" y="116.68">(1)</text>
<circle onclick="fromCircle(6)" class="circle" cx="214.1698" cy="106.5106" r="14.0747" />
<text class="nLabel" x="214.17" y="101.51">6</text>
<text class="belong" x="214.17" y="111.51">(1, 2)</text>
<circle onclick="fromCircle(7)" class="circle" cx="226.4317" cy="147.3210" r="23.6913" />
<text class="nLabel" x="226.43" y="142.32">17</text>
<text class="belong" x="226.43" y="152.32">(1, 2, 3)</text>
<circle onclick="fromCircle(2)" class="circle" cx="267.1346" cy="62.0607" r="48.0743" />
<text class="nLabel" x="267.13" y="57.06">70</text>
<text class="belong" x="267.13" y="67.06">(2)</text>
<circle onclick="fromCircle(3)" class="circle" cx="301.2806" cy="155.4929" r="44.8775" />
<text class="nLabel" x="301.28" y="150.49">61</text>
<text class="belong" x="301.28" y="160.49">(2, 3)</text>
<circle onclick="fromCircle(1)" class="circle" cx="316.0833" cy="348.1513" r="139.4510" />
<text class="nLabel" x="316.08" y="343.15">589</text>
<text class="belong" x="316.08" y="353.15">(3)</text>
<circle onclick="fromCircle(5)" class="circle" cx="189.5769" cy="208.5469" r="40.2218" />
<text class="nLabel" x="189.58" y="203.55">49</text>
<text class="belong" x="189.58" y="213.55">(1, 3)</text>
<g id="legendBox">
<rect class="p0 borderLine" x="500.00" y="50.00" width="30.00" height="15.00" />
<rect class="q0" x="500.00" y="50.00" width="30.00" height="15.00" />
<text class="legend" x="540.00" y="65.00">Zal</text>
<rect class="p1 borderLine" x="500.00" y="90.00" width="30.00" height="15.00" />
<rect class="q1" x="500.00" y="90.00" width="30.00" height="15.00" />
<text class="legend" x="540.00" y="105.00">ST</text>
<rect class="p2 borderLine" x="500.00" y="130.00" width="30.00" height="15.00" />
<rect class="q2" x="500.00" y="130.00" width="30.00" height="15.00" />
<text class="legend" x="540.00" y="145.00">E2</text>
</g>
</svg>
