<svg xmlns="http://www.w3.org/2000/svg" xmlns:xlink="http://www.w3.org/1999/xlink" width="700" height="500">
<defs>
<style type="text/css"><![CDATA[
  .borderLine {
	   stroke: none;
	   fill-opacity:  0.4 ;
  }
  .outLine {
	   stroke-width:  1 ;
	   fill: none;
  }
  .circle {
	   stroke: #888888;
	   stroke-width: 0.5;
	   fill: none;
    pointer-events: all;
  }
  .nLabel {
	   font-family: Arial;
    pointer-events: none;
	   font-size: 10px;
	   text-anchor: middle;
	   alignment-baseline: central;
  }
  .belong {
	   font-family: Arial;
    pointer-events: none;
	   font-size: 5px;
	   text-anchor: middle;
	   alignment-baseline: central;
  }
  .legend {
    font-family: Arial;
    font-size: 15px;
  }
  #legendBox {
    display:  inline ;
  }
  .p0{
    stroke: none;
    fill: #e6194b;
  }
  .q0{
    fill: none;
    stroke: #e6194b;
  }
  .p1{
    stroke: none;
    fill: #3cb44b;
  }
  .q1{
    fill: none;
    stroke: #3cb44b;
  }
  .p2{
    stroke: none;
    fill: #ffe119;
  }
  .q2{
    fill: none;
    stroke: #ffe119;
  }
  .p3{
    stroke: none;
    fill: #0082c8;
  }
  .q3{
    fill: none;
    stroke: #0082c8;
  }
]]>
</style>
<symbol id="bl0">
<path d="M 240.03 355.14 L 237.63 358.29 L 235.10 361.34 L 232.50 364.34 L 229.85 367.30 L 227.19 370.24 L 224.51 373.17 L 221.84 376.10 L 219.16 379.03 L 216.49 381.95 L 213.81 384.87 L 211.13 387.79 L 208.44 390.71 L 205.76 393.62 L 203.08 396.54 L 200.39 399.45 L 197.71 402.36 L 195.02 405.28 L 192.34 408.19 L 189.66 411.10 L 186.97 414.02 L 184.29 416.93 L 181.61 419.84 L 178.92 422.75 L 176.22 425.65 L 173.50 428.52 L 170.75 431.37 L 167.95 434.16 L 165.08 436.88 L 162.12 439.50 L 159.07 442.01 L 155.92 444.39 L 152.66 446.63 L 149.32 448.72 L 145.88 450.65 L 142.36 452.42 L 138.76 454.02 L 135.09 455.46 L 131.35 456.73 L 127.57 457.82 L 123.74 458.73 L 119.87 459.46 L 115.97 460.02 L 112.05 460.39 L 108.11 460.58 L 104.17 460.59 L 100.23 460.41 L 96.30 460.06 L 92.39 459.52 L 88.52 458.80 L 84.67 457.90 L 80.88 456.83 L 77.14 455.58 L 73.46 454.16 L 69.85 452.57 L 66.32 450.81 L 62.87 448.89 L 59.51 446.82 L 56.25 444.59 L 53.10 442.21 L 50.06 439.69 L 47.14 437.03 L 44.35 434.24 L 41.69 431.32 L 39.17 428.28 L 36.79 425.13 L 34.56 421.88 L 32.49 418.52 L 30.57 415.07 L 28.81 411.54 L 27.22 407.93 L 25.80 404.26 L 24.55 400.52 L 23.47 396.73 L 22.55 392.89 L 21.79 389.02 L 21.17 385.11 L 20.67 381.19 L 20.25 377.26 L 19.88 373.31 L 19.54 369.36 L 19.23 365.41 L 18.92 361.45 L 18.62 357.49 L 18.32 353.53 L 18.01 349.57 L 17.72 345.61 L 17.42 341.65 L 17.12 337.69 L 16.82 333.72 L 16.52 329.76 L 16.22 325.79 L 15.93 321.83 L 15.63 317.87 L 15.33 313.90 L 15.03 309.94 L 14.74 305.97 L 14.44 302.01 L 14.14 298.05 L 13.84 294.08 L 13.54 290.12 L 13.25 286.16 L 12.95 282.20 L 12.65 278.23 L 12.36 274.27 L 12.06 270.31 L 11.76 266.35 L 11.47 262.39 L 11.17 258.43 L 10.88 254.46 L 10.61 250.50 L 10.35 246.54 L 10.14 242.57 L 10.01 238.61 L 10.00 234.65 L 10.14 230.69 L 10.48 226.76 L 11.02 222.85 L 11.80 218.99 L 12.80 215.19 L 14.05 211.46 L 15.53 207.83 L 17.23 204.29 L 19.17 200.87 L 21.31 197.58 L 23.66 194.43 L 26.21 191.45 L 28.95 188.63 L 31.86 186.00 L 34.94 183.56 L 38.16 181.32 L 41.53 179.29 L 45.01 177.48 L 48.61 175.89 L 52.30 174.51 L 56.06 173.32 L 59.88 172.29 L 63.74 171.35 L 67.60 170.42 L 71.42 169.40 L 75.18 168.19 L 78.80 166.72 L 82.25 164.92 L 85.47 162.77 L 88.42 160.28 L 91.06 157.45 L 93.37 154.34 L 95.37 150.99 L 97.09 147.45 L 98.60 143.78 L 100.02 140.05 L 101.44 136.30 L 102.95 132.60 L 104.62 128.97 L 106.49 125.46 L 108.59 122.08 L 110.91 118.87 L 113.46 115.83 L 116.23 112.99 L 119.20 110.37 L 122.36 107.97 L 125.69 105.81 L 129.16 103.91 L 132.77 102.27 L 136.50 100.91 L 140.31 99.82 L 144.19 99.02 L 148.13 98.51 L 152.09 98.30 L 156.05 98.38 L 160.00 98.76 L 163.90 99.43 L 167.75 100.38 L 171.51 101.62 L 175.16 103.14 L 178.70 104.92 L 182.09 106.96 L 185.32 109.25 L 188.36 111.77 L 191.22 114.52 L 193.86 117.47 L 196.28 120.61 L 198.46 123.92 L 200.38 127.39 L 202.03 131.01 L 203.40 134.75 L 204.48 138.62 L 205.27 142.62 L 205.79 146.77 L 206.07 151.06 L 206.21 155.46 L 206.31 159.90 L 206.50 164.30 L 206.92 168.59 L 207.61 172.73 L 208.60 176.72 L 209.86 180.59 L 211.34 184.36 L 212.97 188.08 L 214.69 191.75 L 216.46 195.41 L 218.25 199.06 L 220.06 202.70 L 221.86 206.34 L 223.67 209.98 L 225.47 213.62 L 227.26 217.27 L 229.01 220.93 L 230.71 224.62 L 232.30 228.36 L 233.74 232.19 L 234.99 236.12 L 236.01 240.19 L 236.79 244.40 L 237.38 248.74 L 237.82 253.14 L 238.20 257.55 L 238.60 261.90 L 239.06 266.14 L 239.60 270.28 L 240.21 274.33 L 240.87 278.32 L 241.54 282.28 L 242.23 286.23 L 242.91 290.18 L 243.61 294.12 L 244.30 298.06 L 244.99 302.01 L 245.68 305.95 L 246.36 309.90 L 247.01 313.85 L 247.62 317.81 L 248.15 321.77 L 248.53 325.72 L 248.69 329.67 L 248.56 333.60 L 248.06 337.47 L 247.17 341.26 L 245.88 344.93 L 244.23 348.48 L 242.26 351.88 Z" />
</symbol>
<symbol id="bl1">
<path d="M 303.38 305.10 L 299.46 306.46 L 295.55 307.81 L 291.65 309.23 L 287.81 310.75 L 284.04 312.44 L 280.36 314.29 L 276.78 316.33 L 273.30 318.55 L 269.94 320.94 L 266.70 323.50 L 263.60 326.23 L 260.64 329.11 L 257.83 332.14 L 255.14 335.29 L 252.58 338.55 L 250.08 341.86 L 247.58 345.19 L 245.02 348.45 L 242.31 351.57 L 239.40 354.47 L 236.25 357.07 L 232.86 359.29 L 229.24 361.10 L 225.43 362.44 L 221.49 363.28 L 217.48 363.62 L 213.46 363.44 L 209.49 362.75 L 205.65 361.55 L 201.98 359.88 L 198.55 357.76 L 195.39 355.23 L 192.51 352.35 L 189.90 349.18 L 187.50 345.80 L 185.25 342.28 L 183.07 338.70 L 180.88 335.10 L 178.62 331.55 L 176.27 328.06 L 173.79 324.67 L 171.17 321.38 L 168.40 318.23 L 165.48 315.21 L 162.42 312.33 L 159.23 309.60 L 155.90 307.04 L 152.45 304.65 L 148.89 302.43 L 145.22 300.38 L 141.46 298.52 L 137.60 296.85 L 133.67 295.37 L 129.68 294.08 L 125.62 293.00 L 121.52 292.11 L 117.38 291.43 L 113.21 290.96 L 109.02 290.69 L 104.82 290.63 L 100.62 290.76 L 96.41 291.09 L 92.21 291.56 L 88.02 292.12 L 83.84 292.70 L 79.68 293.20 L 75.55 293.54 L 71.44 293.66 L 67.37 293.54 L 63.33 293.15 L 59.33 292.50 L 55.40 291.58 L 51.53 290.40 L 47.76 288.96 L 44.08 287.28 L 40.53 285.36 L 37.11 283.21 L 33.84 280.83 L 30.73 278.23 L 27.80 275.44 L 25.06 272.46 L 22.53 269.30 L 20.21 265.98 L 18.11 262.51 L 16.25 258.92 L 14.63 255.21 L 13.26 251.39 L 12.15 247.50 L 11.29 243.53 L 10.70 239.52 L 10.38 235.47 L 10.31 231.40 L 10.48 227.33 L 10.89 223.27 L 11.48 219.23 L 12.24 215.21 L 13.10 211.21 L 14.05 207.23 L 15.05 203.25 L 16.08 199.29 L 17.12 195.32 L 18.16 191.36 L 19.21 187.40 L 20.26 183.45 L 21.32 179.49 L 22.37 175.53 L 23.42 171.58 L 24.48 167.62 L 25.53 163.66 L 26.58 159.70 L 27.64 155.75 L 28.70 151.79 L 29.77 147.85 L 30.85 143.90 L 31.98 139.97 L 33.18 136.06 L 34.50 132.19 L 35.99 128.41 L 37.71 124.75 L 39.72 121.28 L 42.06 118.05 L 44.73 115.12 L 47.72 112.53 L 51.01 110.31 L 54.55 108.49 L 58.28 107.06 L 62.16 105.98 L 66.15 105.18 L 70.20 104.57 L 74.29 104.09 L 78.40 103.68 L 82.52 103.29 L 86.64 102.92 L 90.76 102.55 L 94.88 102.19 L 99.01 101.82 L 103.14 101.46 L 107.26 101.10 L 111.39 100.75 L 115.52 100.39 L 119.65 100.03 L 123.79 99.68 L 127.92 99.32 L 132.06 98.98 L 136.20 98.66 L 140.34 98.38 L 144.48 98.17 L 148.62 98.06 L 152.76 98.09 L 156.90 98.29 L 161.01 98.68 L 165.12 99.22 L 169.21 99.89 L 173.29 100.65 L 177.36 101.46 L 181.43 102.30 L 185.50 103.16 L 189.56 104.02 L 193.63 104.88 L 197.69 105.74 L 201.76 106.60 L 205.83 107.46 L 209.89 108.31 L 213.96 109.17 L 218.03 110.03 L 222.10 110.89 L 226.18 111.75 L 230.25 112.61 L 234.33 113.48 L 238.41 114.35 L 242.49 115.23 L 246.56 116.12 L 250.63 117.06 L 254.67 118.07 L 258.68 119.18 L 262.62 120.46 L 266.46 121.96 L 270.16 123.73 L 273.70 125.79 L 277.04 128.15 L 280.14 130.81 L 282.99 133.75 L 285.55 136.96 L 287.81 140.43 L 289.79 144.12 L 291.50 148.02 L 292.98 152.08 L 294.33 156.22 L 295.62 160.37 L 296.93 164.48 L 298.34 168.50 L 299.87 172.43 L 301.55 176.27 L 303.39 180.02 L 305.38 183.68 L 307.52 187.26 L 309.81 190.75 L 312.22 194.15 L 314.76 197.46 L 317.39 200.71 L 320.08 203.90 L 322.81 207.06 L 325.55 210.22 L 328.24 213.41 L 330.85 216.66 L 333.33 220.00 L 335.63 223.45 L 337.70 227.03 L 339.51 230.74 L 341.05 234.56 L 342.28 238.49 L 343.19 242.50 L 343.79 246.56 L 344.06 250.64 L 344.00 254.72 L 343.64 258.76 L 342.98 262.73 L 342.05 266.64 L 340.86 270.47 L 339.40 274.22 L 337.66 277.85 L 335.65 281.36 L 333.36 284.71 L 330.80 287.87 L 328.00 290.82 L 324.97 293.55 L 321.74 296.05 L 318.33 298.29 L 314.76 300.30 L 311.05 302.08 L 307.25 303.66 Z" />
</symbol>
<symbol id="bl2">
<path d="M 427.42 293.13 L 425.22 297.07 L 422.84 300.88 L 420.23 304.51 L 417.34 307.89 L 414.17 311.00 L 410.72 313.77 L 407.01 316.19 L 403.09 318.22 L 398.98 319.84 L 394.73 321.03 L 390.38 321.79 L 385.97 322.11 L 381.55 321.98 L 377.16 321.43 L 372.81 320.48 L 368.53 319.19 L 364.31 317.64 L 360.14 315.92 L 355.99 314.14 L 351.84 312.37 L 347.66 310.72 L 343.43 309.22 L 339.14 307.93 L 334.79 306.87 L 330.39 306.04 L 325.95 305.45 L 321.49 305.10 L 317.00 304.96 L 312.51 305.02 L 308.02 305.22 L 303.54 305.50 L 299.05 305.78 L 294.57 305.98 L 290.08 306.04 L 285.58 305.96 L 281.09 305.76 L 276.60 305.45 L 272.11 305.08 L 267.63 304.67 L 263.15 304.23 L 258.67 303.79 L 254.19 303.35 L 249.71 302.90 L 245.23 302.45 L 240.75 302.02 L 236.27 301.60 L 231.78 301.23 L 227.29 300.95 L 222.80 300.84 L 218.30 300.98 L 213.80 301.45 L 209.29 302.24 L 204.77 303.26 L 200.23 304.35 L 195.65 305.34 L 191.04 306.06 L 186.40 306.44 L 181.75 306.42 L 177.14 305.98 L 172.59 305.13 L 168.13 303.87 L 163.80 302.22 L 159.63 300.20 L 155.66 297.81 L 151.91 295.09 L 148.42 292.05 L 145.20 288.71 L 142.29 285.10 L 139.70 281.25 L 137.46 277.18 L 135.59 272.94 L 134.09 268.54 L 132.97 264.03 L 132.22 259.42 L 131.82 254.75 L 131.70 250.03 L 131.78 245.28 L 131.94 240.52 L 132.02 235.75 L 131.91 230.98 L 131.53 226.24 L 130.82 221.54 L 129.76 216.91 L 128.34 212.37 L 126.57 207.95 L 124.46 203.66 L 122.04 199.50 L 119.35 195.46 L 116.50 191.52 L 113.60 187.64 L 110.80 183.75 L 108.22 179.82 L 105.94 175.80 L 104.02 171.68 L 102.47 167.46 L 101.29 163.14 L 100.49 158.74 L 100.07 154.29 L 100.03 149.82 L 100.37 145.36 L 101.08 140.94 L 102.17 136.60 L 103.61 132.37 L 105.41 128.27 L 107.55 124.33 L 110.01 120.60 L 112.78 117.08 L 115.83 113.81 L 119.15 110.81 L 122.70 108.09 L 126.46 105.66 L 130.41 103.52 L 134.50 101.64 L 138.70 99.99 L 142.98 98.51 L 147.31 97.15 L 151.67 95.88 L 156.04 94.66 L 160.42 93.46 L 164.80 92.28 L 169.18 91.10 L 173.56 89.92 L 177.95 88.74 L 182.33 87.56 L 186.71 86.39 L 191.09 85.21 L 195.47 84.04 L 199.84 82.86 L 204.22 81.68 L 208.59 80.50 L 212.97 79.31 L 217.34 78.13 L 221.72 76.95 L 226.10 75.77 L 230.48 74.59 L 234.85 73.40 L 239.23 72.22 L 243.61 71.04 L 247.99 69.86 L 252.36 68.68 L 256.73 67.50 L 261.10 66.32 L 265.47 65.14 L 269.83 63.96 L 274.20 62.78 L 278.57 61.59 L 282.94 60.41 L 287.31 59.22 L 291.67 58.04 L 296.04 56.85 L 300.40 55.67 L 304.77 54.49 L 309.13 53.30 L 313.49 52.12 L 317.86 50.94 L 322.22 49.76 L 326.58 48.59 L 330.95 47.41 L 335.31 46.24 L 339.67 45.06 L 344.03 43.89 L 348.40 42.73 L 352.76 41.58 L 357.14 40.46 L 361.52 39.39 L 365.93 38.40 L 370.35 37.52 L 374.80 36.78 L 379.27 36.19 L 383.76 35.78 L 388.26 35.57 L 392.76 35.55 L 397.25 35.74 L 401.74 36.13 L 406.20 36.72 L 410.63 37.52 L 415.03 38.52 L 419.37 39.72 L 423.65 41.11 L 427.87 42.70 L 432.02 44.47 L 436.07 46.44 L 440.04 48.59 L 443.90 50.91 L 447.65 53.41 L 451.29 56.08 L 454.80 58.91 L 458.17 61.89 L 461.41 65.03 L 464.50 68.31 L 467.44 71.73 L 470.23 75.27 L 472.84 78.94 L 475.29 82.72 L 477.56 86.62 L 479.66 90.61 L 481.57 94.69 L 483.30 98.86 L 484.83 103.09 L 486.17 107.39 L 487.31 111.75 L 488.26 116.16 L 489.00 120.60 L 489.53 125.08 L 489.87 129.57 L 490.00 134.07 L 489.92 138.58 L 489.65 143.08 L 489.16 147.56 L 488.48 152.02 L 487.59 156.44 L 486.51 160.82 L 485.24 165.15 L 483.80 169.43 L 482.21 173.66 L 480.50 177.85 L 478.72 182.01 L 476.88 186.15 L 475.02 190.27 L 473.14 194.40 L 471.26 198.52 L 469.38 202.64 L 467.49 206.76 L 465.60 210.88 L 463.71 215.00 L 461.82 219.12 L 459.92 223.24 L 458.03 227.36 L 456.14 231.48 L 454.24 235.60 L 452.34 239.73 L 450.45 243.85 L 448.56 247.97 L 446.67 252.09 L 444.77 256.22 L 442.88 260.34 L 440.99 264.46 L 439.10 268.58 L 437.20 272.70 L 435.31 276.82 L 433.40 280.93 L 431.47 285.03 L 429.49 289.10 Z" />
</symbol>
<symbol id="bl3">
<path d="M 412.53 346.37 L 411.51 349.91 L 410.49 353.45 L 409.47 357.00 L 408.44 360.54 L 407.42 364.07 L 406.40 367.61 L 405.37 371.15 L 404.34 374.69 L 403.32 378.23 L 402.29 381.76 L 401.26 385.29 L 400.24 388.82 L 399.21 392.36 L 398.17 395.89 L 397.11 399.41 L 396.03 402.93 L 394.89 406.42 L 393.67 409.88 L 392.35 413.31 L 390.91 416.68 L 389.34 419.99 L 387.62 423.23 L 385.77 426.39 L 383.78 429.47 L 381.64 432.44 L 379.38 435.32 L 376.98 438.09 L 374.47 440.75 L 371.83 443.29 L 369.08 445.71 L 366.22 448.00 L 363.27 450.16 L 360.21 452.18 L 357.07 454.05 L 353.85 455.78 L 350.54 457.37 L 347.17 458.80 L 343.74 460.07 L 340.25 461.19 L 336.71 462.14 L 333.13 462.94 L 329.53 463.56 L 325.90 464.03 L 322.25 464.32 L 318.60 464.45 L 314.95 464.41 L 311.30 464.20 L 307.67 463.83 L 304.05 463.29 L 300.46 462.59 L 296.91 461.72 L 293.40 460.69 L 289.94 459.50 L 286.53 458.15 L 283.19 456.65 L 279.93 455.00 L 276.74 453.19 L 273.64 451.25 L 270.63 449.16 L 267.72 446.94 L 264.91 444.59 L 262.21 442.12 L 259.61 439.54 L 257.10 436.87 L 254.67 434.11 L 252.31 431.30 L 249.98 428.46 L 247.69 425.60 L 245.41 422.72 L 243.13 419.84 L 240.86 416.95 L 238.60 414.07 L 236.33 411.18 L 234.06 408.29 L 231.79 405.40 L 229.53 402.52 L 227.27 399.63 L 225.00 396.74 L 222.74 393.85 L 220.48 390.96 L 218.21 388.06 L 215.95 385.17 L 213.69 382.27 L 211.43 379.37 L 209.16 376.47 L 206.90 373.57 L 204.64 370.67 L 202.37 367.77 L 200.12 364.86 L 197.88 361.93 L 195.68 358.98 L 193.53 355.99 L 191.45 352.94 L 189.45 349.83 L 187.53 346.66 L 185.67 343.45 L 183.83 340.23 L 181.99 337.00 L 180.11 333.81 L 178.16 330.67 L 176.12 327.59 L 173.98 324.58 L 171.74 321.63 L 169.43 318.74 L 167.07 315.89 L 164.66 313.07 L 162.23 310.27 L 159.79 307.48 L 157.34 304.69 L 154.89 301.90 L 152.46 299.11 L 150.04 296.29 L 147.66 293.45 L 145.35 290.57 L 143.12 287.61 L 141.01 284.58 L 139.07 281.45 L 137.30 278.22 L 135.75 274.89 L 134.42 271.46 L 133.33 267.95 L 132.48 264.37 L 131.89 260.73 L 131.55 257.05 L 131.47 253.32 L 131.66 249.57 L 132.10 245.81 L 132.80 242.07 L 133.75 238.40 L 134.94 234.81 L 136.37 231.35 L 138.03 228.01 L 139.92 224.82 L 142.03 221.77 L 144.34 218.89 L 146.86 216.18 L 149.56 213.66 L 152.44 211.34 L 155.48 209.24 L 158.67 207.37 L 161.98 205.72 L 165.40 204.29 L 168.89 203.07 L 172.44 202.06 L 176.03 201.27 L 179.65 200.71 L 183.28 200.38 L 186.92 200.28 L 190.56 200.38 L 194.20 200.65 L 197.83 201.02 L 201.46 201.47 L 205.09 201.96 L 208.72 202.46 L 212.35 202.97 L 215.97 203.49 L 219.60 204.01 L 223.23 204.52 L 226.86 205.03 L 230.49 205.53 L 234.13 206.00 L 237.77 206.42 L 241.42 206.76 L 245.07 206.99 L 248.73 207.05 L 252.39 206.90 L 256.06 206.51 L 259.73 205.86 L 263.41 204.98 L 267.10 203.92 L 270.81 202.79 L 274.54 201.70 L 278.29 200.74 L 282.05 199.99 L 285.83 199.48 L 289.61 199.24 L 293.40 199.26 L 297.17 199.56 L 300.90 200.12 L 304.59 200.94 L 308.22 202.01 L 311.77 203.31 L 315.24 204.83 L 318.64 206.53 L 321.96 208.38 L 325.22 210.33 L 328.45 212.35 L 331.67 214.39 L 334.90 216.41 L 338.15 218.38 L 341.45 220.28 L 344.80 222.09 L 348.20 223.79 L 351.66 225.37 L 355.18 226.82 L 358.74 228.15 L 362.36 229.33 L 366.02 230.37 L 369.72 231.28 L 373.47 232.05 L 377.24 232.70 L 381.04 233.26 L 384.84 233.78 L 388.61 234.34 L 392.34 235.00 L 395.97 235.85 L 399.51 236.93 L 402.91 238.26 L 406.18 239.86 L 409.30 241.72 L 412.26 243.84 L 415.02 246.19 L 417.58 248.76 L 419.92 251.53 L 422.03 254.49 L 423.88 257.61 L 425.47 260.88 L 426.79 264.27 L 427.83 267.75 L 428.57 271.31 L 429.03 274.92 L 429.20 278.57 L 429.10 282.22 L 428.75 285.87 L 428.19 289.50 L 427.47 293.11 L 426.62 296.70 L 425.70 300.27 L 424.73 303.83 L 423.73 307.38 L 422.72 310.92 L 421.71 314.47 L 420.69 318.01 L 419.67 321.55 L 418.65 325.10 L 417.63 328.64 L 416.61 332.19 L 415.60 335.74 L 414.58 339.28 L 413.55 342.83 Z" />
</symbol>
</defs>
<!-- isDone: 0 -->
<rect width="700" height="500" style="fill:#fff;stroke-width:0" />
<use class="p0 borderLine" xlink:href="#bl0"/>
<use class="p1 borderLine" xlink:href="#bl1"/>
<use class="p2 borderLine" xlink:href="#bl2"/>
<use class="p3 borderLine" xlink:href="#bl3"/>
<use class="q0 outLine" xlink:href="#bl0"/>
<use class="q1 outLine" xlink:href="#bl1"/>
<use class="q2 outLine" xlink:href="#bl2"/>
<use class="q3 outLine" xlink:href="#bl3"/>
<circle onclick="fromCircle(8)" class="circle" cx="105.2989" cy="376.1266" r="81.5521" />
<text class="nLabel" x="105.30" y="371.13">8</text>
<text class="belong" x="105.30" y="381.13">(1)</text>
<circle onclick="fromCircle(12)" class="circle" cx="70.6718" cy="232.5838" r="57.6660" />
<text class="nLabel" x="70.67" y="227.58">4</text>
<text class="belong" x="70.67" y="237.58">(1, 2)</text>
<circle onclick="fromCircle(14)" class="circle" cx="152.6683" cy="151.2280" r="49.9403" />
<text class="nLabel" x="152.67" y="146.23">3</text>
<text class="belong" x="152.67" y="156.23">(1, 2, 3)</text>
<circle onclick="fromCircle(15)" class="circle" cx="184.7086" cy="253.7511" r="49.9403" />
<text class="nLabel" x="184.71" y="248.75">3</text>
<text class="belong" x="184.71" y="258.75">(1, 2, 3, 4)</text>
<circle onclick="fromCircle(4)" class="circle" cx="66.0817" cy="137.0798" r="28.8330" />
<text class="nLabel" x="66.08" y="132.08">1</text>
<text class="belong" x="66.08" y="142.08">(2)</text>
<circle onclick="fromCircle(6)" class="circle" cx="250.3478" cy="162.5552" r="40.7760" />
<text class="nLabel" x="250.35" y="157.56">2</text>
<text class="belong" x="250.35" y="167.56">(2, 3)</text>
<circle onclick="fromCircle(7)" class="circle" cx="291.2816" cy="252.6323" r="49.9403" />
<text class="nLabel" x="291.28" y="247.63">3</text>
<text class="belong" x="291.28" y="257.63">(2, 3, 4)</text>
<circle onclick="fromCircle(2)" class="circle" cx="392.0260" cy="133.9767" r="95.6283" />
<text class="nLabel" x="392.03" y="128.98">11</text>
<text class="belong" x="392.03" y="138.98">(3)</text>
<circle onclick="fromCircle(3)" class="circle" cx="385.8292" cy="278.7292" r="40.7760" />
<text class="nLabel" x="385.83" y="273.73">2</text>
<text class="belong" x="385.83" y="283.73">(3, 4)</text>
<circle onclick="fromCircle(1)" class="circle" cx="318.2057" cy="385.1922" r="76.2850" />
<text class="nLabel" x="318.21" y="380.19">7</text>
<text class="belong" x="318.21" y="390.19">(4)</text>
<circle onclick="fromCircle(13)" class="circle" cx="216.8732" cy="332.5345" r="28.8330" />
<text class="nLabel" x="216.87" y="327.53">1</text>
<text class="belong" x="216.87" y="337.53">(1, 2, 4)</text>
<g id="legendBox">
<rect class="p0 borderLine" x="500.00" y="50.00" width="30.00" height="15.00" />
<rect class="q0" x="500.00" y="50.00" width="30.00" height="15.00" />
<text class="legend" x="540.00" y="65.00">Sup_1</text>
<rect class="p1 borderLine" x="500.00" y="90.00" width="30.00" height="15.00" />
<rect class="q1" x="500.00" y="90.00" width="30.00" height="15.00" />
<text class="legend" x="540.00" y="105.00">Sup_2</text>
<rect class="p2 borderLine" x="500.00" y="130.00" width="30.00" height="15.00" />
<rect class="q2" x="500.00" y="130.00" width="30.00" height="15.00" />
<text class="legend" x="540.00" y="145.00">Basal_2</text>
<rect class="p3 borderLine" x="500.00" y="170.00" width="30.00" height="15.00" />
<rect class="q3" x="500.00" y="170.00" width="30.00" height="15.00" />
<text class="legend" x="540.00" y="185.00">Basal_1</text>
</g>
</svg>
